<?xml version="1.0" encoding="utf-8"?>
<?xml-stylesheet type="text/xsl" href="rss1.xsl"?>
<rss version="2.0" xmlns:atom="http://www.w3.org/2005/Atom" xmlns:content="http://purl.org/rss/1.0/modules/content/" xmlns:dc="http://purl.org/dc/elements/1.1/" xmlns:media="http://search.yahoo.com/mrss/">
<channel>
 <title>Getty</title>
 <link>http://www.gettyimg.com/</link>
 <atom:link href="http://www.gettyimg.com/" rel="self" type="application/rss+xml" />

 
                <item>
                <title><![CDATA[【YOUTUBE】WEB-RiP - TXT, Anitta - ‘Back for More’ Official MV (YouTube VP9 4K 2160p)]]></title>
                <link><![CDATA[https://sharemania.us/threads/txt-anitta-%E2%80%98back-for-more%E2%80%99-official-mv-youtube-vp9-4k-2160p.228453/]]></link>
                <description><![CDATA[<article>
<blockquote class="messageText SelectQuoteContainer ugc baseHtml">
<div style="text-align: center"><img src="https://i.imgur.com/9Hi9WPL.jpg" class="bbCodeImage LbImage" alt="[​IMG]" data-url="https://i.imgur.com/9Hi9WPL.jpg" style=""><br>
<br>
2160p <span style="color: rgb(0, 179, 89)">VP9</span> YouTube Rip<br>
by: <span style="color: rgb(166, 77, 255)">stargamer</span><br>
<br>
<div class="ToggleTriggerAnchor bbCodeSpoilerContainer">
<button type="button" class="button bbCodeSpoilerButton ToggleTrigger Tooltip JsOnly" data-target="> .SpoilerTarget"><span>Spoiler: <span class="SpoilerTitle">Media Info</span></span></button>
<div class="SpoilerTarget bbCodeSpoilerText">General<br>
<br>
Format : MPEG-4<br>
Format profile : Base Media<br>
Codec ID : isom (isom/iso2/mp41)<br>
File size : 334 MiB<br>
Duration : 3 min 26 s<br>
Overall bit rate mode : Variable<br>
Overall bit rate : 13.6 Mb/s<br>
Writing application : Ripped by STARGAMER<br>
<br>
Video<br>
ID : 1<br>
Format : vp09<br>
Codec ID : vp09<br>
Duration : 3 min 26 s<br>
Bit rate : 13.5 Mb/s<br>
Width : 3 840 pixels<br>
Height : 2 160 pixels<br>
Display aspect ratio : 16:9<br>
Frame rate mode : Variable<br>
Frame rate : 23.976 FPS<br>
Minimum frame rate : 23.810 FPS<br>
Maximum frame rate : 24.390 FPS<br>
Bits/(Pixel*Frame) : 0.068<br>
Stream size : 331 MiB (99%)<br>
Language : English<br>
<br>
Audio<br>
ID : 2<br>
Format : Opus<br>
Codec ID : Opus<br>
Duration : 3 min 26 s<br>
Duration_FirstFrame : 1 ms<br>
Bit rate mode : Variable<br>
Bit rate : 126 kb/s<br>
Channel(s) : 2 channels<br>
Sampling rate : 48.0 kHz<br>
Bit depth : 16 bits<br>
Compression mode : Lossy<br>
Stream size : 3.11 MiB (1%)<br>
Language : English<br>
Default : Yes<br>
Alternate group : 1</div>
</div><br>
<span style="font-size: 18px">Download:<br>
<br>
</span>​</div>
<div class="bbCodeBlock bbCodeVfcHH HiddenContent">
<div class="attribution type">Hidden Content:</div>
<blockquote>You must either reply or click 'Like' to see the hidden information contained here.</blockquote>
</div><div style="text-align: center">​</div>
<div class="messageTextEndMarker">&nbsp;</div>
</blockquote>
</article>]]></description>
                <author><![CDATA[stargamer]]></author>
                </item>

                </channel></rss>